<?xml version="1.0" encoding="utf-8"?>
<!-- Generator: Adobe Illustrator 23.0.2, SVG Export Plug-In . SVG Version: 6.00 Build 0)  -->
<svg version="1.1" id="Layer_1" xmlns="http://www.w3.org/2000/svg" xmlns:xlink="http://www.w3.org/1999/xlink" x="0px" y="0px"
	 viewBox="0 0 485 485" style="enable-background:new 0 0 485 485;" xml:space="preserve">
<style type="text/css">
	.st0{fill:#333333;}
	.st1{fill:#FFFFFF;}
</style>
<path class="st0" d="M431.9,250c0-11.1-1-22.2-2.9-33.1l-15.8,2.8c11.7,67.2-16.5,135.2-72.4,174.4l-12.9-21
	c-4.4-7.1-4.7-15.9-1-23.3l3.6-7.3c1.3-2.7,4.1-4.4,7.2-4.4H349c9.8,0,18.7-6,22.3-15.1l10.8-27.1c1.1-2.8,1.7-5.9,1.7-8.9v-17.6
	c0-4.2-1.7-8.3-4.7-11.3l-9.6-9.6c-4.9-4.9-12.3-6.1-18.5-3l-19.7,9.8c-2.2,1.1-4.9,1.1-7.2,0l-32-16c-2.7-1.4-4.4-4.1-4.4-7.1V210
	c0-8.8-7.2-16-16-16c-4.4,0-8-3.6-8-8v-8c0-2.5,1.2-4.9,3.2-6.4l25.6-19.2l-9.6-12.8l-25.6,19.2c-6,4.5-9.6,11.7-9.6,19.2v8
	c0,13.3,10.7,24,24,24v22.1c0,9.1,5.1,17.4,13.3,21.5l32,16c6.8,3.4,14.7,3.4,21.5,0l19.7-9.8l9.6,9.6V287c0,1-0.2,2-0.6,3l-10.6,27
	c-1.2,3-4.2,5-7.4,5h-11.3c-9.1,0-17.4,5.1-21.5,13.3l-3.6,7.3c-6.2,12.3-5.6,27,1.7,38.8l13,21.3c-49.3,28.4-109.2,31.1-160.9,7.3
	l9.8-6.6c1.3-0.9,2.8-1.3,4.4-1.4h20.5c6.4,0,12.5-2.5,17-7l22.6-22.6c4.5-4.5,7-10.6,7-17v-36.9c0-4.3-1.2-8.6-3.4-12.3l-17.1-28.6
	c-4.4-7.1-12.1-11.5-20.5-11.5h-22.4c-8,0-15.5,4-20,10.7l-8.8,13.3H136c-8.8,0-16,7.2-16,16v15.3c0,2.7-1.4,5.2-3.7,6.7l-25,16.1
	C73.5,316,64,283.4,64,250c0-2.7,0.1-5.3,0.2-8h13.9c3,0,5.8,1.7,7.2,4.4l9.4,18.8c2.7,5.4,8.3,8.8,14.3,8.8h8.4
	c5,0,9.8-2.3,12.8-6.4c3-4,4-9.2,2.6-14L122.6,218h15.8c5.5,0,10.7-1.9,15-5.3l26.1-20.9c8.4-6.7,11.3-18.3,7.1-28.2l-13.7-32
	c-1.6-3.7-0.2-8,3.2-10l20.1-12.1c7.3-4.4,11.7-12.3,11.7-20.9L207.7,77c25.8-4.8,52.4-3.8,77.7,2.9l4.1-15.4
	C210.1,43.3,126,75,80.3,143.4s-42.7,158.3,7.4,223.5s136.1,91.3,214,64.9C379.5,405.4,431.9,332.3,431.9,250z M191.8,80.8l0.1,8.1
	c0,2.8-1.4,5.5-3.9,6.9L167.8,108c-10.3,6.2-14.4,19-9.7,30l13.7,32c1.4,3.3,0.5,7.2-2.4,9.4l-26.1,20.9c-1.4,1.1-3.2,1.7-5,1.7
	h-15.8c-5,0-9.8,2.3-12.8,6.4c-3,4-4,9.2-2.6,14l10.2,35.6h-8.4l-9.4-18.7c-4-8.2-12.4-13.3-21.5-13.3H65.7
	C75.3,157,124.7,100,191.8,80.8z M100.5,357.2l24.4-15.8c6.9-4.4,11-12,11-20.2V306h19.7c5.4,0,10.3-2.7,13.3-7.1l8.9-13.3
	c1.5-2.2,4-3.6,6.7-3.6H207c2.8,0,5.3,1.4,6.8,3.8l17.1,28.5c0.7,1.2,1.1,2.7,1.1,4.1v36.9c0,2.1-0.8,4.2-2.3,5.7L207,383.7
	c-1.5,1.5-3.5,2.3-5.7,2.3h-20.5c-4.7,0-9.4,1.4-13.3,4l-17.1,11.4C131.2,390,114.2,375,100.5,357.2z"/>
<path class="st1" d="M16.5,257.8l-16,1.1c0.4,5.4,0.9,10.9,1.7,16.3l15.9-2.2C17.4,268,16.9,262.8,16.5,257.8z"/>
<path class="st1" d="M40.8,139.5l-14.2-7.3c-2.5,4.8-4.9,9.8-7,14.8l14.7,6.3C36.3,148.6,38.5,144,40.8,139.5z"/>
<path class="st1" d="M20.7,288.1L5,291.4c1.1,5.3,2.4,10.7,3.9,15.9l15.4-4.3C23,298,21.8,293.1,20.7,288.1z"/>
<path class="st1" d="M20.5,197l-15.7-3.2c-1.1,5.3-2,10.7-2.7,16.1L18,212C18.7,207,19.5,201.9,20.5,197z"/>
<path class="st1" d="M56.7,113.3l-13.1-9.2c-3.1,4.4-6.1,9.1-9,13.7l13.7,8.3C50.9,121.8,53.7,117.5,56.7,113.3z"/>
<path class="st1" d="M28.7,167.5l-15.1-5.3c-1.8,5.2-3.5,10.4-4.9,15.6l15.4,4.3C25.4,177.2,27,172.3,28.7,167.5z"/>
<path class="st1" d="M16.5,227.2l-16-1C0.2,231.4,0,236.7,0,242v0.5l16-0.5C16,237.1,16.2,232.1,16.5,227.2z"/>
<path class="st1" d="M29,317.5l-15,5.4c1.8,5.1,3.9,10.2,6,15.2l14.7-6.4C32.6,327,30.7,322.3,29,317.5z"/>
<path class="st1" d="M75.9,89.6L64.2,78.7c-3.7,4-7.3,8.2-10.7,12.4l12.4,10.1C69.1,97.2,72.4,93.3,75.9,89.6z"/>
<path class="st1" d="M208.8,20.2l-2.2-15.9C201.2,5,195.8,6,190.5,7.1l3.3,15.7C198.7,21.8,203.7,20.9,208.8,20.2z"/>
<path class="st1" d="M239.2,18.1l-0.1-16c-5.5,0-11,0.2-16.4,0.6l1.1,16C229,18.3,234.1,18.1,239.2,18.1z"/>
<path class="st1" d="M178.8,26.5l-4.3-15.4c-5.2,1.5-10.5,3.1-15.6,5l5.4,15.1C169.1,29.5,174,27.9,178.8,26.5z"/>
<path class="st1" d="M98.2,68.7L88,56.3c-4.2,3.4-8.4,7.1-12.3,10.8l10.9,11.7C90.4,75.3,94.3,71.9,98.2,68.7z"/>
<path class="st1" d="M150.1,36.8l-6.4-14.7c-4.9,2.2-9.9,4.6-14.7,7.1l7.4,14.2C140.9,41.1,145.5,38.9,150.1,36.8z"/>
<path class="st1" d="M123.1,51l-8.4-13.6c-4.6,2.8-9.2,5.9-13.6,9l9.3,13C114.5,56.5,118.7,53.6,123.1,51z"/>
<path class="st1" d="M329.3,447.5l6.4,14.7c5-2.2,9.9-4.5,14.8-7l-7.4-14.2C338.6,443.2,334,445.4,329.3,447.5z"/>
<path class="st1" d="M403.7,394.9l11.7,10.9c3.7-4,7.3-8.1,10.8-12.3l-12.4-10.1C410.5,387.3,407.1,391.2,403.7,394.9z"/>
<path class="st1" d="M381.4,415.7l10.1,12.4c4.2-3.4,8.4-7.1,12.3-10.8l-10.9-11.7C389.2,409.2,385.3,412.5,381.4,415.7z"/>
<path class="st1" d="M423,371.2l13.1,9.3c3.1-4.4,6.2-9,9-13.7l-13.7-8.3C428.7,362.7,425.9,367,423,371.2z"/>
<path class="st1" d="M356.4,433.4l8.3,13.7c4.6-2.8,9.2-5.8,13.7-9l-9.2-13.1C365.1,427.9,360.7,430.7,356.4,433.4z"/>
<path class="st1" d="M300.6,457.7l4.3,15.4c5.2-1.5,10.5-3.1,15.6-5l-5.4-15.1C310.4,454.8,305.5,456.3,300.6,457.7z"/>
<path class="st1" d="M463.4,257.3l16,1.1c0.4-5.4,0.6-10.9,0.6-16.4h-16C463.9,247.2,463.8,252.3,463.4,257.3z"/>
<path class="st1" d="M459.3,287.6l15.7,3.2c1.1-5.3,2-10.7,2.8-16.1l-15.9-2.2C461.2,277.6,460.3,282.6,459.3,287.6z"/>
<path class="st1" d="M451.1,317l15.1,5.4c1.8-5.2,3.5-10.4,5-15.6l-15.4-4.3C454.3,307.3,452.8,312.2,451.1,317z"/>
<path class="st1" d="M438.9,345l14.2,7.4c2.5-4.8,4.9-9.8,7-14.8l-14.7-6.4C443.4,335.9,441.2,340.5,438.9,345z"/>
<path class="st1" d="M41.2,345.4L27,352.8c2.5,4.8,5.2,9.6,8.1,14.2l13.7-8.3C46.1,354.4,43.6,349.9,41.2,345.4z"/>
<path class="st1" d="M88.8,428.4c4.2,3.4,8.6,6.8,13.1,9.9l9.2-13.1c-4.2-2.9-8.2-6-12.2-9.2L88.8,428.4z"/>
<path class="st1" d="M144.6,462.3c5,2.2,10.1,4.2,15.3,6l5.3-15.1c-4.8-1.7-9.6-3.6-14.2-5.6L144.6,462.3z"/>
<path class="st1" d="M115.5,447.3c4.7,2.8,9.5,5.5,14.3,8l7.4-14.2c-4.5-2.3-9-4.8-13.3-7.5L115.5,447.3z"/>
<path class="st1" d="M64.8,406.1c3.7,4,7.6,7.9,11.6,11.6L87.3,406c-3.7-3.4-7.3-7.1-10.8-10.8L64.8,406.1z"/>
<path class="st1" d="M57.2,371.5l-13.1,9.2c3.1,4.4,6.5,8.8,9.9,13l12.4-10.1C63.2,379.7,60.1,375.6,57.2,371.5z"/>
<path class="st1" d="M270.7,463.9l2.2,15.8c5.4-0.7,10.8-1.7,16.1-2.8l-3.2-15.7C280.8,462.3,275.7,463.2,270.7,463.9z"/>
<path class="st1" d="M207.6,479.8c5.4,0.7,10.8,1.3,16.3,1.6l1.1-16c-5.1-0.3-10.2-0.9-15.2-1.5L207.6,479.8z"/>
<path class="st1" d="M240.2,466v16c5.5,0,11-0.2,16.4-0.6l-1.1-16C250.4,465.8,245.3,466,240.2,466z"/>
<path class="st1" d="M175.5,473.2c5.3,1.5,10.6,2.8,15.9,3.8l3.2-15.7c-5-1-10-2.2-14.8-3.6L175.5,473.2z"/>
<path class="st0" d="M305.6,69.6l-4.6,78.2c-0.7,11.4,3.6,22.6,11.6,30.6l15.5,15.5l28.2-73.5l28.6,28.5v35.3c0,6.4,2.5,12.5,7,16.9
	l13.9,13.9l17-28.3l4.1,4.1c6,6.2,14.9,8.7,23.3,6.5s14.9-8.7,17.1-17.1c2.2-8.4-0.3-17.3-6.5-23.3l-4.1-4.1l28.3-17l-13.9-13.9
	c-4.5-4.5-10.6-7-17-7h-35.3l-28.5-28.5l73.5-28.3l-15.6-15.5c-8.1-8.1-19.2-12.3-30.6-11.6l-78.2,4.6L313.7,9.9
	c-9.5-9.1-24.4-9.1-33.9,0c-9.4,9.4-9.4,24.6,0,33.9L305.6,69.6z M322.1,165.1c-3.7-4.6-5.5-10.4-5.2-16.3l3.8-64l23.3,23.3
	L322.1,165.1z M402.7,189.2c-1.1-1.4-1.7-3.2-1.7-5V165l10.2,10.2L402.7,189.2z M454.2,131c1.8,0,3.6,0.6,5,1.7l-14.1,8.5L434.8,131
	H454.2z M418.6,47c5.9-0.3,11.7,1.5,16.3,5.2l-57,21.9l-23.3-23.3L418.6,47z M291.1,21.2c3.1-3.1,8.2-3.1,11.3,0l147.1,147.1
	c3.1,3.1,3.1,8.2,0,11.3c-3.2,3-8.1,3-11.3,0l-147-147.1C288,29.4,288,24.3,291.1,21.2z"/>
</svg>
