<?xml version="1.0" encoding="utf-8"?>
<!-- Generator: Adobe Illustrator 23.0.2, SVG Export Plug-In . SVG Version: 6.00 Build 0)  -->
<svg version="1.1" id="Layer_1" xmlns="http://www.w3.org/2000/svg" xmlns:xlink="http://www.w3.org/1999/xlink" x="0px" y="0px"
	 viewBox="0 0 512 512" style="enable-background:new 0 0 512 512;" xml:space="preserve">
<style type="text/css">
	.st0{fill:#333333;}
</style>
<g id="Page-1">
	<g>
		<path id="Shape" class="st0" d="M508.5,213.9c-6.2-37.4-20.7-73-42.5-104c-0.2-0.3-0.4-0.7-0.7-1C419,43,344.5,2.8,264.1,0.2h-0.2
			C261.2,0.1,258.6,0,256,0C190.5,0,127.5,25.2,80,70.3c-0.4,0.3-0.8,0.7-1.1,1.1C20.8,126.7-7.7,206.3,1.8,285.9
			c0,0.2,0,0.3,0.1,0.5c10.8,88.9,67.2,165.8,148.8,202.8c0.2,0.1,0.4,0.2,0.6,0.3c25.1,11.3,51.8,18.5,79.1,21.2
			c8.4,0.9,16.9,1.3,25.6,1.3c69.7,0,136.4-28.5,184.5-78.8c0.5-0.4,0.9-0.8,1.3-1.3c55.2-58.1,80-138.8,66.7-217.8V213.9z
			 M383.5,149c-0.3-2.4-0.7-4.8-1.4-7.1c23.3-8.9,47.6-15.2,72.3-18.8c14.9,22.2,26,46.7,32.7,72.5
			C455.4,174.6,420.4,158.8,383.5,149L383.5,149z M341.3,238.9c0,41.5-7.5,82.6-22.3,121.3c-3.8-1.2-7.8-1.8-11.8-1.9
			c-13.9,0-27,6.8-34.9,18.3c-19-10.4-36.9-22.5-53.7-36.2c7.1-17,2.3-36.5-11.8-48.3c25.3-44.2,60-82.3,101.7-111.4
			c7.4,9,18.2,14.5,29.8,15.3C340.3,210.2,341.3,224.6,341.3,238.9L341.3,238.9z M227.5,493.2c-22.4-2.6-44.3-8.5-65.1-17.3
			c-0.2-4.7-0.3-9.6-0.3-15.1c0-31.9,4.5-63.6,13.4-94.2c1.2,0.1,2.4,0.4,3.7,0.4c11.2,0,21.9-4.4,29.9-12.3
			c17.6,14.3,36.4,26.9,56.3,37.7c-3.3,15.4,2.4,31.4,14.6,41.4C264.9,455.5,247.3,475.5,227.5,493.2L227.5,493.2z M85.3,196.3
			c0-14.1,11.5-25.6,25.6-25.6s25.6,11.5,25.6,25.6s-11.5,25.6-25.6,25.6S85.3,210.4,85.3,196.3z M94,80.6
			C138,39.7,195.9,17,256,17.1c1.1,0,2.2,0.1,3.4,0.1c25.5,29.7,45.7,63.7,59.6,100.3c-7.5,4.6-13.4,11.4-16.9,19.4
			c-4-0.1-8-0.3-11.9-0.3c-50.8-0.1-101,10.7-147.3,31.7c-9.8-11.5-25.1-16.8-39.9-13.9C97.3,130.2,94.3,105.4,94,80.6z
			 M153.6,196.3c-0.1-4.5-0.8-8.9-2.3-13.1c43.7-19.6,91-29.7,138.8-29.6c2.9,0,5.7,0.2,8.5,0.2c0.1,3.9,0.7,7.9,1.9,11.6
			c-44.6,30.8-81.7,71.2-108.5,118.3c-9-3.1-18.7-2.9-27.5,0.6c-12.4-16.1-23.3-33.2-32.6-51.2C145.3,225.7,153.5,211.6,153.6,196.3
			L153.6,196.3z M179.2,298.7c14.1,0,25.6,11.5,25.6,25.6s-11.5,25.6-25.6,25.6s-25.6-11.5-25.6-25.6
			C153.6,310.1,165.1,298.7,179.2,298.7z M281.6,401.1c0-14.1,11.5-25.6,25.6-25.6s25.6,11.5,25.6,25.6c0,3-0.6,6-1.7,8.9v0.1
			c-4.3,11.6-16.3,18.4-28.5,16.2C290.4,424,281.6,413.4,281.6,401.1z M341.3,179.2c-14.1,0-25.6-11.5-25.6-25.6
			s11.5-25.6,25.6-25.6s25.6,11.5,25.6,25.6S355.5,179.2,341.3,179.2z M443.1,107.7c-23.6,4-46.7,10.4-68.9,19
			c-8-9.9-20.1-15.7-32.8-15.8c-2.1,0.1-4.3,0.3-6.4,0.6c-12.7-33.5-30.3-64.8-52.4-93C345.8,25.7,403.6,57.8,443.1,107.7
			L443.1,107.7z M77.5,97.4c1.2,21.4,4.4,42.7,9.5,63.6c-16.4,11-23,32-15.8,50.4c-19.7,15.2-37.8,32.4-53.9,51.4
			c-0.1-2.3-0.2-4.5-0.2-6.8C17,197.5,38.5,141.1,77.5,97.4L77.5,97.4z M19.2,287.5c17.7-23,38.2-43.7,61.2-61.6
			c8,8.3,19,13,30.6,13c1.5-0.1,3-0.2,4.5-0.5c9.8,19.3,21.4,37.7,34.5,54.9c-10,9.3-14.8,22.9-13,36.5s10.1,25.4,22.2,31.8
			c-9.3,32.2-14,65.6-14,99.1c0,2.4,0.1,4.5,0.1,6.8C76.5,431.5,29.5,364.4,19.2,287.5z M250.8,494.8c16.5-16.2,31.4-33.9,44.5-53
			c3.9,1.2,7.9,1.9,11.9,1.9c14.9,0,28.6-7.8,36.3-20.6c23.3,6.2,47.1,9.9,71.1,11.3C371,473.5,314.5,495,256,494.9
			C254.3,494.9,252.5,494.8,250.8,494.8L250.8,494.8z M431.4,418c-27.7-0.3-55.3-4-82.2-11c0.3-2,0.5-4,0.6-6
			c0-12.7-5.8-24.7-15.7-32.7c16-41.3,24.2-85.1,24.2-129.4c0-15.1-1-30.2-2.9-45.2c12.6-4.5,22.4-14.6,26.4-27.4
			c39.8,10.9,77.2,29.2,110.4,53.8C503.1,291.9,480.8,364.7,431.4,418L431.4,418z"/>
	</g>
</g>
</svg>
