<?xml version="1.0"?>
<svg xmlns="http://www.w3.org/2000/svg" height="25px" width="25px" fill="#fff" viewBox="0 0 128 128"><g><path d="M113.018,4.557H14.982A10.436,10.436,0,0,0,4.557,14.982V86.13A10.437,10.437,0,0,0,14.982,96.556H46.437V112.7h-9.9a1.749,1.749,0,0,0-1.75,1.75v7.241a1.749,1.749,0,0,0,1.75,1.75H91.463a1.749,1.749,0,0,0,1.75-1.75v-7.241a1.749,1.749,0,0,0-1.75-1.75h-9.9V96.556h31.456A10.437,10.437,0,0,0,123.443,86.13V14.982A10.436,10.436,0,0,0,113.018,4.557ZM89.713,119.943H38.287V116.2H89.713ZM78.062,112.7H49.937V96.556H78.062ZM119.943,86.13a6.933,6.933,0,0,1-6.925,6.926H14.982A6.933,6.933,0,0,1,8.057,86.13V14.982a6.932,6.932,0,0,1,6.925-6.925h98.036a6.932,6.932,0,0,1,6.925,6.925Z"/><path d="M110.63,15.62H17.37a1.749,1.749,0,0,0-1.75,1.75V83.742a1.749,1.749,0,0,0,1.75,1.75h93.26a1.749,1.749,0,0,0,1.75-1.75V17.37A1.749,1.749,0,0,0,110.63,15.62Zm-1.75,66.372H19.12V19.12h89.76Z"/><path d="M64,74.051A23.614,23.614,0,1,0,40.386,50.437,23.641,23.641,0,0,0,64,74.051ZM45.037,57.081a28.042,28.042,0,0,0,9.023,3.295,28.033,28.033,0,0,0,3.3,9.023A20.179,20.179,0,0,1,45.037,57.081Zm8.429-12.829a54.971,54.971,0,0,0,0,12.369c-5.836-1.422-9.58-3.889-9.58-6.184S47.63,45.674,53.466,44.252ZM64,30.323c2.3,0,4.762,3.744,6.184,9.579a55.119,55.119,0,0,0-12.368,0C59.238,34.067,61.705,30.323,64,30.323Zm0,12.731a47.743,47.743,0,0,1,6.887.5,48.054,48.054,0,0,1,0,13.773,48.061,48.061,0,0,1-13.774,0,48.054,48.054,0,0,1,0-13.773A47.743,47.743,0,0,1,64,43.054Zm20.114,7.383c0,2.3-3.744,4.762-9.58,6.184a53.583,53.583,0,0,0,.349-6.184,53.812,53.812,0,0,0-.349-6.185C80.37,45.674,84.114,48.141,84.114,50.437ZM64,70.551c-2.3,0-4.762-3.745-6.184-9.58a55.119,55.119,0,0,0,12.368,0C68.762,66.806,66.3,70.551,64,70.551ZM70.644,69.4a28.033,28.033,0,0,0,3.3-9.023,28.042,28.042,0,0,0,9.023-3.295A20.179,20.179,0,0,1,70.644,69.4ZM82.963,43.792a28.042,28.042,0,0,0-9.023-3.3,28.026,28.026,0,0,0-3.3-9.022A20.18,20.18,0,0,1,82.963,43.792ZM57.356,31.475a28.026,28.026,0,0,0-3.3,9.022,28.042,28.042,0,0,0-9.023,3.3A20.18,20.18,0,0,1,57.356,31.475Z"/></g></svg>
